:FULLY-SPECIFIED
:FORCE-ALL-JOINTS-BE-3DOF
:DEGREES
2039
root -3.08532 14.8884 21.9659 175.517 -8.00609 172.839
lfemur -10.6194 8.97732 -18.7224
ltibia 54.3864 -0 0
lfoot -25.9932 26.6577 0.459242
ltoes -37.3143 0 0
rfemur -38.3827 -8.95693 4.63684
rtibia 45.4284 -0 0
rfoot 23.9401 -4.38066 1.25409
rtoes 7.26823 -0 0
lowerback 14.526 0.895526 -7.10682
upperback 0.562818 0.032884 1.56765
thorax -7.66764 0.259635 5.6601
lowerneck -3.9177 -4.8091 -7.16363
upperneck 10.3031 -6.30618 1.13633
head 4.35515 -3.4622 0.958712
lclavicle -8.25702e-14 -1.82882e-14 0
lhumerus -44.3392 -11.5165 96.4501
lradius 82.7631 -0 0
lwrist 38.2913 0 0
lhand -26.8867 29.9669 -0.549847
lfingers 7.12502 -0 0
lthumb 0.866497 75.7347 1.71852
rclavicle -8.25702e-14 -1.82882e-14 0
rhumerus 22.1995 -18.4996 -90.7811
rradius 31.4227 -0 0
rwrist 22.1955 -180 -180
rhand -1.20595 -34.8806 -0.0979799
rfingers 7.12502 -0 0
rthumb 24.4327 -63.3219 -0.0867792
2040
root -3.10649 14.884 21.8086 175.16 -9.09292 172.779
lfemur -9.58132 8.40111 -19.0704
ltibia 54.0921 -0 0
lfoot -26.4352 26.5096 0.44593
ltoes -37.856 0 0
rfemur -38.9699 -9.13085 4.54503
rtibia 44.5008 -0 0
rfoot 24.6237 -3.60477 1.13385
rtoes 7.42341 -0 0
lowerback 14.6411 1.01077 -7.27671
upperback 0.613701 0.136714 1.48349
thorax -7.68861 0.311109 5.6492
lowerneck -3.85084 -5.22145 -7.47039
upperneck 10.5198 -6.88259 1.37136
head 4.42519 -3.74979 1.06032
lclavicle -8.25702e-14 -1.82882e-14 0
lhumerus -46.3992 -12.0749 97.8731
lradius 85.2987 -0 0
lwrist 41.018 0 0
lhand -26.8349 29.7807 -0.539474
lfingers 7.12502 -0 0
lthumb 0.886089 75.2481 1.68436
rclavicle -8.25702e-14 -1.82882e-14 0
rhumerus 25.7217 -19.1278 -91.4225
rradius 28.9606 -0 0
rwrist 29.2614 -180 -180
rhand -1.40997 -34.7298 -0.0909611
rfingers 7.12502 -0 0
rthumb 24.2373 -63.1988 -0.0805283
2041
root -3.12765 14.8797 21.6513 174.824 -10.1368 172.733
lfemur -8.58174 7.84782 -19.4126
ltibia 53.8279 -0 0
lfoot -26.8436 26.351 0.428101
ltoes -38.3795 0 0
rfemur -39.5409 -9.2905 4.47279
rtibia 43.6209 -0 0
rfoot 25.2483 -2.8617 1.01013
rtoes 7.56786 -0 0
lowerback 14.7486 1.1236 -7.43538
upperback 0.661705 0.239849 1.40198
thorax -7.70806 0.361988 5.63493
lowerneck -3.78267 -5.61974 -7.76682
upperneck 10.7201 -7.44103 1.60029
head 4.49017 -4.02775 1.15972
lclavicle -8.25702e-14 -1.82882e-14 0
lhumerus -48.4142 -12.5742 99.2722
lradius 87.7539 -0 0
lwrist 43.6392 0 0
lhand -26.773 29.636 -0.523356
lfingers 7.12502 -0 0
lthumb 0.903139 74.6498 1.63377
rclavicle -8.25702e-14 -1.82882e-14 0
rhumerus 29.1495 -19.6669 -92.0502
rradius 26.5934 -0 0
rwrist 36.1856 -180 -180
rhand -1.61025 -34.5898 -0.0833852
rfingers 7.12502 -0 0
rthumb 24.0454 -63.0859 -0.0738036
2042
root -3.14881 14.8753 21.494 174.509 -11.1346 172.7
lfemur -7.62394 7.31878 -19.7458
ltibia 53.5964 -0 0
lfoot -27.2155 26.1818 0.40566
ltoes -38.8825 0 0
rfemur -40.0938 -9.43442 4.42055
rtibia 42.7931 -0 0
rfoot 25.8102 -2.15407 0.884849
rtoes 7.7015 -0 0
lowerback 14.8478 1.23357 -7.58216
upperback 0.70658 0.341976 1.32335
thorax -7.72581 0.412113 5.6172
lowerneck -3.7136 -6.00279 -8.05191
upperneck 10.903 -7.97967 1.82295
head 4.54974 -4.29518 1.25674
lclavicle -8.25702e-14 -1.82882e-14 0
lhumerus -50.3761 -13.0145 100.639
lradius 90.1175 -0 0
lwrist 46.1434 0 0
lhand -26.7005 29.5358 -0.501201
lfingers 7.12502 -0 0
lthumb 0.917663 73.9332 1.56574
rclavicle -8.25702e-14 -1.82882e-14 0
rhumerus 32.4661 -20.1184 -92.6514
rradius 24.3303 -0 0
rwrist 42.9393 -180 -180
rhand -1.80604 -34.4617 -0.0753466
rfingers 7.12502 -0 0
rthumb 23.8579 -62.9842 -0.0666862
